# xmcd CD database file
#
# Track frame offsets:
#	150
#	11658
#	33615
#	56773
#	116143
#	131225
#	158433
#	193783
#	245903
#
# Disc length: 4269 seconds
#
# Revision: 4
# Processed by: cddbd v1.5.2PL0 Copyright (c) Steve Scherf et al.
# Submitted via: CDex 1.51
#
DISCID=8210ab09
DTITLE=Olivier Messiaen - Piano Works - Vol.2  (Peter Hill, piano)
DYEAR=1991
DGENRE=Piano
TTITLE0=Vingt Regards sur l'enfant-Jésus - XII. La Parole toute puissante
TTITLE1=Vingt Regards sur l'enfant-Jésus - XIII. Noël
TTITLE2=Vingt Regards sur l'enfant-Jésus - XIV. Regard des Anges
TTITLE3=Vingt Regards sur l'enfant-Jésus - XV. Le Baiser de l' Enfant-Jésus
TTITLE4=Vingt Regards sur l'enfant-Jésus - XVI. Regard des prophètes, des bergers et des Mages
TTITLE5=Vingt Regards sur l'enfant-Jésus - XVII. Regard du silence
TTITLE6=Vingt Regards sur l'enfant-Jésus - XVIII. Regard de l'Onction terrible
TTITLE7=Vingt Regards sur l'enfant-Jésus - XIX. Je dors, mais mon coeur veille
TTITLE8=Vingt Regards sur l'enfant-Jésus - XX. Regard de l' Église d'amour
EXTD=YEAR: 1991
EXTT0=
EXTT1=
EXTT2=
EXTT3=
EXTT4=
EXTT5=
EXTT6=
EXTT7=
EXTT8=
PLAYORDER=
